<svg fill="none" width="100" height="100" viewBox="-3 0 50 45"  xmlns="http://www.w3.org/2000/svg">
  <style>
    g { fill: #161a26; }
    @media (prefers-color-scheme: dark) {
      g { fill: #FFF; }
    }
  </style>
  <g>
    <path d="m31.3267 6.97106-1.9157 4.43554c7.408 3.2118 10.8144 11.8327 7.6085 19.255-3.2056 7.4226-11.8095 10.8358-19.2172 7.6235l-1.6763 3.8814c9.6998 4.2057 20.9661-.2634 25.1635-9.9827 4.1978-9.7189-.2629-21.0071-9.9628-25.21274z"/>
    <path d="m8.67452 23.3084c3.13948-7.2692 11.56578-10.6121 18.82098-7.4664l1.9158-4.4355c-9.2382-4.00555-19.9194-.0159-24.344 8.914.25861-1.1338.61872-2.2608 1.09658-3.3668 4.19702-9.71923 15.46302-14.18873 25.16312-9.98269l2.1553-4.99029c-12.1447-5.26605-26.25074.33006-31.50608 12.49868-5.1264 11.8697.06465 25.6047 11.59428 31.1599.2882.1426.5815.279.8798.4082l1.6763-3.8811c-7.25487-3.1456-10.59156-11.5888-7.45208-18.858z"/>
  </g>
</svg>