<?xml version="1.0" encoding="UTF-8"?><svg id="Layer_2" xmlns="http://www.w3.org/2000/svg" viewBox="0 0 216 231.561"><defs><style>.cls-1{fill:#fff;}</style></defs><g id="Layer_2-2"><g id="Layer_1-2"><path class="cls-1" d="M157.846,35.055l-9.653,22.305c37.326,16.152,54.49,59.504,38.337,96.829-16.152,37.326-59.504,54.49-96.829,38.337l-8.446,19.519c48.874,21.149,105.641-1.325,126.79-50.201,21.151-48.874-1.325-105.641-50.199-126.79v.002Z"/><path class="cls-1" d="M43.708,117.212c15.819-36.555,58.276-53.365,94.832-37.547l9.653-22.305c-46.548-20.143-100.366-.08-122.66,44.826,1.303-5.702,3.118-11.369,5.525-16.931C52.205,36.38,108.97,13.904,157.846,35.055l10.859-25.095C107.512-16.521,36.437,11.62,9.957,72.813c-25.83,59.69.326,128.759,58.419,156.695,1.452.717,2.93,1.403,4.433,2.053l8.446-19.517c-36.555-15.819-53.365-58.277-37.547-94.832h-.002Z"/></g></g></svg>